<svg xmlns="http://www.w3.org/2000/svg" width="1400" height="520" viewBox="0 0 1400 520" role="img" aria-labelledby="title desc">
  <title id="title">自动化科研 Skill</title>
  <desc id="desc">Codex 自动化科研流程控制器的 README 顶部图。</desc>
  <defs>
    <linearGradient id="bg" x1="0" y1="0" x2="1" y2="1">
      <stop offset="0" stop-color="#07111f"/>
      <stop offset="0.58" stop-color="#0f172a"/>
      <stop offset="1" stop-color="#0d3b3e"/>
    </linearGradient>
    <linearGradient id="accent" x1="0" y1="0" x2="1" y2="0">
      <stop offset="0" stop-color="#38bdf8"/>
      <stop offset="0.52" stop-color="#22c55e"/>
      <stop offset="1" stop-color="#facc15"/>
    </linearGradient>
    <filter id="shadow" x="-20%" y="-20%" width="140%" height="140%">
      <feDropShadow dx="0" dy="18" stdDeviation="22" flood-color="#000000" flood-opacity="0.24"/>
    </filter>
  </defs>
  <rect width="1400" height="520" rx="32" fill="url(#bg)"/>
  <g opacity="0.12" stroke="#e2e8f0" stroke-width="1">
    <path d="M0 104 H1400"/><path d="M0 208 H1400"/><path d="M0 312 H1400"/><path d="M0 416 H1400"/>
    <path d="M175 0 V520"/><path d="M350 0 V520"/><path d="M525 0 V520"/><path d="M700 0 V520"/><path d="M875 0 V520"/><path d="M1050 0 V520"/><path d="M1225 0 V520"/>
  </g>
  <g filter="url(#shadow)">
    <rect x="64" y="58" width="1272" height="404" rx="28" fill="#f8fafc"/>
  </g>
  <rect x="64" y="58" width="1272" height="10" fill="url(#accent)"/>
  <text x="112" y="138" font-family="Segoe UI, Arial, sans-serif" font-size="25" font-weight="800" fill="#0f766e">AUTONOMOUS SCIENTIFIC RESEARCH</text>
  <text x="112" y="222" font-family="Segoe UI, Arial, sans-serif" font-size="70" font-weight="850" fill="#0f172a">自动化科研 Skill</text>
  <text x="116" y="285" font-family="Segoe UI, Arial, sans-serif" font-size="30" fill="#334155">让 Codex 按科研流程工作，而不是只会自动跑实验。</text>
  <g font-family="Segoe UI, Arial, sans-serif" font-size="22" font-weight="700">
    <rect x="116" y="340" width="138" height="46" rx="23" fill="#dbeafe"/>
    <text x="144" y="370" fill="#1d4ed8">Stage 0-4</text>
    <rect x="272" y="340" width="180" height="46" rx="23" fill="#dcfce7"/>
    <text x="302" y="370" fill="#15803d">Claim Ledger</text>
    <rect x="470" y="340" width="174" height="46" rx="23" fill="#fef3c7"/>
    <text x="500" y="370" fill="#a16207">Leakage Audit</text>
    <rect x="662" y="340" width="196" height="46" rx="23" fill="#fee2e2"/>
    <text x="692" y="370" fill="#b91c1c">Review ≠ Target</text>
  </g>
  <g transform="translate(1032 124)">
    <rect x="0" y="0" width="210" height="250" rx="26" fill="#0f172a"/>
    <rect x="32" y="40" width="146" height="16" rx="8" fill="#38bdf8"/>
    <rect x="32" y="78" width="110" height="16" rx="8" fill="#22c55e"/>
    <rect x="32" y="116" width="132" height="16" rx="8" fill="#facc15"/>
    <path d="M42 182 L84 212 L170 82" fill="none" stroke="#f8fafc" stroke-width="15" stroke-linecap="round" stroke-linejoin="round"/>
  </g>
</svg>
