<svg xmlns="http://www.w3.org/2000/svg" width="1280" height="640" viewBox="0 0 1280 640" role="img" aria-labelledby="title desc">
  <title id="title">自动化科研 Skill</title>
  <desc id="desc">Codex 自动化科研流程控制器，强调文献路线、实验注册表、claim ledger 和泄漏审计。</desc>
  <defs>
    <linearGradient id="bg" x1="0" y1="0" x2="1" y2="1">
      <stop offset="0" stop-color="#07111f"/>
      <stop offset="0.56" stop-color="#0f172a"/>
      <stop offset="1" stop-color="#0d3b3e"/>
    </linearGradient>
    <linearGradient id="line" x1="0" y1="0" x2="1" y2="0">
      <stop offset="0" stop-color="#38bdf8"/>
      <stop offset="0.52" stop-color="#22c55e"/>
      <stop offset="1" stop-color="#facc15"/>
    </linearGradient>
    <filter id="softShadow" x="-20%" y="-20%" width="140%" height="140%">
      <feDropShadow dx="0" dy="16" stdDeviation="22" flood-color="#000000" flood-opacity="0.28"/>
    </filter>
  </defs>
  <rect width="1280" height="640" fill="url(#bg)"/>
  <g opacity="0.16" stroke="#94a3b8" stroke-width="1">
    <path d="M0 112 H1280"/><path d="M0 224 H1280"/><path d="M0 336 H1280"/><path d="M0 448 H1280"/><path d="M0 560 H1280"/>
    <path d="M160 0 V640"/><path d="M320 0 V640"/><path d="M480 0 V640"/><path d="M640 0 V640"/><path d="M800 0 V640"/><path d="M960 0 V640"/><path d="M1120 0 V640"/>
  </g>
  <rect x="72" y="78" width="1136" height="484" rx="36" fill="#f8fafc" filter="url(#softShadow)"/>
  <rect x="72" y="78" width="1136" height="10" fill="url(#line)"/>
  <text x="118" y="158" font-family="Segoe UI, Arial, sans-serif" font-size="28" font-weight="700" fill="#0f766e">CODEX SKILL</text>
  <text x="118" y="250" font-family="Segoe UI, Arial, sans-serif" font-size="72" font-weight="850" fill="#0f172a">自动化科研流程控制器</text>
  <text x="122" y="314" font-family="Segoe UI, Arial, sans-serif" font-size="30" fill="#334155">从文献路线到实验注册表，从 Claim Ledger 到泄漏审计</text>
  <g font-family="Segoe UI, Arial, sans-serif" font-size="24" font-weight="700">
    <rect x="122" y="378" width="150" height="50" rx="25" fill="#dbeafe"/>
    <text x="153" y="411" fill="#1d4ed8">Stage 0-4</text>
    <rect x="292" y="378" width="198" height="50" rx="25" fill="#dcfce7"/>
    <text x="322" y="411" fill="#15803d">Claim Ledger</text>
    <rect x="510" y="378" width="188" height="50" rx="25" fill="#fef3c7"/>
    <text x="541" y="411" fill="#a16207">No score chasing</text>
  </g>
  <g transform="translate(872 168)">
    <rect x="0" y="0" width="246" height="246" rx="28" fill="#0f172a"/>
    <rect x="28" y="42" width="190" height="18" rx="9" fill="#38bdf8"/>
    <rect x="28" y="88" width="146" height="18" rx="9" fill="#22c55e"/>
    <rect x="28" y="134" width="170" height="18" rx="9" fill="#facc15"/>
    <path d="M50 198 L96 226 L194 88" fill="none" stroke="#f8fafc" stroke-width="16" stroke-linecap="round" stroke-linejoin="round"/>
  </g>
  <text x="82" y="604" font-family="Segoe UI, Arial, sans-serif" font-size="22" fill="#cbd5e1">github.com/puffcakeii/autonomous-scientific-research-skill</text>
</svg>
