<svg xmlns="http://www.w3.org/2000/svg" width="1280" height="640" viewBox="0 0 1280 640" role="img" aria-labelledby="title desc">
  <title id="title">Autonomous Scientific Research Skill</title>
  <desc id="desc">Social preview image for a Codex skill focused on staged scientific research, claim ledgers, and leakage audits.</desc>
  <defs>
    <linearGradient id="bg" x1="0" y1="0" x2="1" y2="1">
      <stop offset="0" stop-color="#0f172a"/>
      <stop offset="0.55" stop-color="#111827"/>
      <stop offset="1" stop-color="#052e2b"/>
    </linearGradient>
    <linearGradient id="accent" x1="0" y1="0" x2="1" y2="0">
      <stop offset="0" stop-color="#38bdf8"/>
      <stop offset="0.55" stop-color="#22c55e"/>
      <stop offset="1" stop-color="#facc15"/>
    </linearGradient>
    <filter id="shadow" x="-20%" y="-20%" width="140%" height="140%">
      <feDropShadow dx="0" dy="14" stdDeviation="18" flood-color="#000" flood-opacity="0.32"/>
    </filter>
  </defs>
  <rect width="1280" height="640" fill="url(#bg)"/>
  <path d="M0 536 C220 470 304 610 520 542 C716 480 792 346 1010 386 C1138 410 1200 488 1280 444 L1280 640 L0 640 Z" fill="#0f766e" opacity="0.25"/>
  <path d="M60 104 H1220" stroke="url(#accent)" stroke-width="6" stroke-linecap="round"/>
  <g filter="url(#shadow)">
    <rect x="74" y="138" width="1132" height="374" rx="28" fill="#f8fafc" opacity="0.96"/>
  </g>
  <text x="114" y="220" font-family="Segoe UI, Arial, sans-serif" font-size="34" font-weight="700" fill="#0f172a">Codex Skill</text>
  <text x="114" y="296" font-family="Segoe UI, Arial, sans-serif" font-size="66" font-weight="800" fill="#0f172a">自动化科研流程控制器</text>
  <text x="116" y="356" font-family="Segoe UI, Arial, sans-serif" font-size="30" fill="#334155">文献路线 · 实验注册表 · Claim Ledger · 泄漏审计</text>
  <g font-family="Segoe UI, Arial, sans-serif" font-size="24" font-weight="700">
    <rect x="116" y="408" width="146" height="48" rx="24" fill="#dbeafe"/>
    <text x="144" y="440" fill="#1d4ed8">Stage 0-4</text>
    <rect x="286" y="408" width="172" height="48" rx="24" fill="#dcfce7"/>
    <text x="314" y="440" fill="#15803d">No score chasing</text>
    <rect x="482" y="408" width="160" height="48" rx="24" fill="#fef3c7"/>
    <text x="510" y="440" fill="#a16207">GPL-3.0</text>
  </g>
  <g transform="translate(900 194)" fill="none" stroke="#0f172a" stroke-width="10" stroke-linecap="round" stroke-linejoin="round" opacity="0.9">
    <path d="M24 166 L92 232 L246 54"/>
    <rect x="0" y="0" width="288" height="288" rx="34" stroke="#0f172a" opacity="0.18"/>
    <path d="M64 78 H160"/>
    <path d="M64 126 H218"/>
    <path d="M64 174 H132"/>
  </g>
  <text x="76" y="574" font-family="Segoe UI, Arial, sans-serif" font-size="22" fill="#cbd5e1">github.com/puffcakeii/autonomous-scientific-research-skill</text>
</svg>
